<svg width="58" height="54" viewBox="0 0 58 54" fill="none" xmlns="http://www.w3.org/2000/svg">
<path d="M29.0007 0.837891C23.3804 0.837891 17.8863 2.391 13.2132 5.30083C8.54011 8.21065 4.89788 12.3465 2.74709 17.1854C0.596297 22.0242 0.0335522 27.3488 1.13002 32.4857C2.22648 37.6226 4.9329 42.3411 8.90705 46.0446C12.8812 49.7481 17.9445 52.2702 23.4568 53.292C28.9691 54.3138 34.6828 53.7894 39.8752 51.7851C45.0677 49.7808 49.5058 46.3866 52.6283 42.0317C55.7507 37.6768 57.4173 32.5569 57.4173 27.3194C57.4173 20.296 54.4234 13.5604 49.0943 8.59414C43.7651 3.6279 36.5372 0.837891 29.0007 0.837891ZM43.7437 21.7992L25.6604 38.651C25.176 39.1024 24.519 39.3559 23.834 39.3559C23.149 39.3559 22.492 39.1024 22.0076 38.651L14.2576 31.4288C13.787 30.9748 13.5266 30.3667 13.5325 29.7354C13.5384 29.1042 13.8101 28.5004 14.289 28.0541C14.768 27.6077 15.4159 27.3545 16.0933 27.3491C16.7706 27.3436 17.4232 27.5862 17.9104 28.0247L23.834 33.5449L40.0909 18.3951C40.5781 17.9566 41.2307 17.7139 41.908 17.7194C42.5854 17.7249 43.2333 17.9781 43.7123 18.4244C44.1912 18.8708 44.4629 19.4746 44.4688 20.1058C44.4747 20.737 44.2143 21.3451 43.7437 21.7992Z" fill="#2A7B0D"/>
</svg>
