<svg width="36" height="36" viewBox="0 0 36 36" fill="none" xmlns="http://www.w3.org/2000/svg">
<g clip-path="url(#clip0_2502_6450)">
<path d="M18 0C8.1 0 0 8.1 0 18C0 27.9 8.1 36 18 36C27.9 36 36 27.9 36 18C36 8.1 27.9 0 18 0ZM18 6C21.3 6 24 9.3 24 13.5C24 17.7 21.3 21 18 21C14.7 21 12 17.7 12 13.5C12 9.3 14.7 6 18 6ZM27.9 29.25C25.35 31.5 21.75 33 18 33C14.25 33 10.65 31.5 8.1 29.25C7.5 28.65 7.35 27.75 7.95 27.15C9.6 25.2 11.85 23.85 14.25 23.1C15.45 23.7 16.65 24 18 24C19.35 24 20.55 23.7 21.75 23.1C24.3 23.85 26.4 25.2 28.05 27.15C28.65 27.75 28.65 28.65 27.9 29.25Z" fill="black"/>
</g>
<defs>
<clipPath id="clip0_2502_6450">
<rect width="36" height="36" fill="white"/>
</clipPath>
</defs>
</svg>
