<svg width="35" height="35" viewBox="0 0 35 35" fill="none" xmlns="http://www.w3.org/2000/svg">
<path d="M23.5498 19.9961C24.5752 18.3828 25.1768 16.4688 25.1768 14.4111C25.1768 8.66211 20.5215 4 14.7793 4C9.03027 4 4.375 8.66211 4.375 14.4111C4.375 20.1602 9.03027 24.8223 14.7725 24.8223C16.8574 24.8223 18.7988 24.207 20.4258 23.1543L20.8975 22.8262L28.3213 30.25L30.625 27.9053L23.208 20.4814L23.5498 19.9961ZM20.6035 8.59375C22.1553 10.1455 23.0098 12.21 23.0098 14.4043C23.0098 16.5986 22.1553 18.6631 20.6035 20.2148C19.0518 21.7666 16.9873 22.6211 14.793 22.6211C12.5986 22.6211 10.5342 21.7666 8.98242 20.2148C7.43066 18.6631 6.57617 16.5986 6.57617 14.4043C6.57617 12.21 7.43066 10.1455 8.98242 8.59375C10.5342 7.04199 12.5986 6.1875 14.793 6.1875C16.9873 6.1875 19.0518 7.04199 20.6035 8.59375Z" fill="black"/>
</svg>
