<svg width="16" height="16" viewBox="0 0 16 16" fill="none" xmlns="http://www.w3.org/2000/svg">
<g clip-path="url(#clip0_3403_6388)">
<path d="M8.00002 9.99935C9.10459 9.99935 10 9.10392 10 7.99935C10 6.89478 9.10459 5.99935 8.00002 5.99935C6.89545 5.99935 6.00002 6.89478 6.00002 7.99935C6.00002 9.10392 6.89545 9.99935 8.00002 9.99935Z" stroke="#344054" stroke-width="1.5" stroke-linecap="round" stroke-linejoin="round"/>
<path d="M12.9334 9.99935C12.8446 10.2004 12.8181 10.4235 12.8573 10.6397C12.8966 10.856 12.9997 11.0556 13.1534 11.2127L13.1934 11.2527C13.3173 11.3765 13.4157 11.5236 13.4828 11.6854C13.5499 11.8473 13.5844 12.0208 13.5844 12.196C13.5844 12.3712 13.5499 12.5447 13.4828 12.7066C13.4157 12.8685 13.3173 13.0155 13.1934 13.1393C13.0695 13.2633 12.9225 13.3617 12.7606 13.4288C12.5987 13.4959 12.4252 13.5304 12.25 13.5304C12.0748 13.5304 11.9013 13.4959 11.7394 13.4288C11.5776 13.3617 11.4305 13.2633 11.3067 13.1393L11.2667 13.0993C11.1096 12.9457 10.91 12.8426 10.6937 12.8033C10.4775 12.7641 10.2544 12.7906 10.0534 12.8793C9.85617 12.9639 9.68801 13.1042 9.56956 13.283C9.45111 13.4619 9.38754 13.6715 9.38669 13.886V13.9993C9.38669 14.353 9.24621 14.6921 8.99616 14.9422C8.74611 15.1922 8.40698 15.3327 8.05335 15.3327C7.69973 15.3327 7.36059 15.1922 7.11054 14.9422C6.8605 14.6921 6.72002 14.353 6.72002 13.9993V13.9393C6.71486 13.7187 6.64343 13.5047 6.51503 13.3251C6.38662 13.1456 6.20718 13.0089 6.00002 12.9327C5.79894 12.8439 5.57589 12.8175 5.35963 12.8567C5.14336 12.8959 4.94381 12.999 4.78669 13.1527L4.74669 13.1927C4.62286 13.3167 4.4758 13.415 4.31394 13.4821C4.15208 13.5492 3.97857 13.5837 3.80335 13.5837C3.62813 13.5837 3.45463 13.5492 3.29277 13.4821C3.1309 13.415 2.98385 13.3167 2.86002 13.1927C2.73605 13.0689 2.63771 12.9218 2.57061 12.7599C2.50351 12.5981 2.46897 12.4246 2.46897 12.2493C2.46897 12.0741 2.50351 11.9006 2.57061 11.7388C2.63771 11.5769 2.73605 11.4298 2.86002 11.306L2.90002 11.266C3.05371 11.1089 3.15681 10.9093 3.19602 10.6931C3.23524 10.4768 3.20876 10.2538 3.12002 10.0527C3.03551 9.8555 2.89519 9.68734 2.71633 9.56889C2.53747 9.45044 2.32788 9.38687 2.11335 9.38602H2.00002C1.6464 9.38602 1.30726 9.24554 1.05721 8.99549C0.807163 8.74544 0.666687 8.4063 0.666687 8.05268C0.666687 7.69906 0.807163 7.35992 1.05721 7.10987C1.30726 6.85982 1.6464 6.71935 2.00002 6.71935H2.06002C2.28068 6.71419 2.49469 6.64276 2.67422 6.51436C2.85375 6.38595 2.9905 6.20651 3.06669 5.99935C3.15543 5.79827 3.1819 5.57522 3.14269 5.35896C3.10348 5.14269 3.00038 4.94313 2.84669 4.78602L2.80669 4.74602C2.68272 4.62218 2.58437 4.47513 2.51727 4.31327C2.45017 4.1514 2.41564 3.9779 2.41564 3.80268C2.41564 3.62746 2.45017 3.45396 2.51727 3.2921C2.58437 3.13023 2.68272 2.98318 2.80669 2.85935C2.93052 2.73538 3.07757 2.63703 3.23943 2.56994C3.4013 2.50284 3.5748 2.4683 3.75002 2.4683C3.92524 2.4683 4.09874 2.50284 4.26061 2.56994C4.42247 2.63703 4.56952 2.73538 4.69335 2.85935L4.73335 2.89935C4.89047 3.05304 5.09003 3.15614 5.30629 3.19535C5.52256 3.23456 5.74561 3.20809 5.94669 3.11935H6.00002C6.1972 3.03484 6.36536 2.89452 6.48382 2.71566C6.60227 2.5368 6.66583 2.32721 6.66669 2.11268V1.99935C6.66669 1.64573 6.80716 1.30659 7.05721 1.05654C7.30726 0.806491 7.6464 0.666016 8.00002 0.666016C8.35364 0.666016 8.69278 0.806491 8.94283 1.05654C9.19288 1.30659 9.33335 1.64573 9.33335 1.99935V2.05935C9.33421 2.27387 9.39777 2.48347 9.51622 2.66233C9.63468 2.84119 9.80284 2.98151 10 3.06602C10.2011 3.15476 10.4241 3.18123 10.6404 3.14202C10.8567 3.10281 11.0562 2.99971 11.2134 2.84602L11.2534 2.80602C11.3772 2.68205 11.5242 2.5837 11.6861 2.5166C11.848 2.4495 12.0215 2.41497 12.1967 2.41497C12.3719 2.41497 12.5454 2.4495 12.7073 2.5166C12.8691 2.5837 13.0162 2.68205 13.14 2.80602C13.264 2.92985 13.3623 3.0769 13.4294 3.23876C13.4965 3.40063 13.5311 3.57413 13.5311 3.74935C13.5311 3.92457 13.4965 4.09807 13.4294 4.25994C13.3623 4.4218 13.264 4.56885 13.14 4.69268L13.1 4.73268C12.9463 4.8898 12.8432 5.08936 12.804 5.30562C12.7648 5.52189 12.7913 5.74494 12.88 5.94602V5.99935C12.9645 6.19653 13.1048 6.36469 13.2837 6.48314C13.4626 6.60159 13.6722 6.66516 13.8867 6.66602H14C14.3536 6.66602 14.6928 6.80649 14.9428 7.05654C15.1929 7.30659 15.3334 7.64573 15.3334 7.99935C15.3334 8.35297 15.1929 8.69211 14.9428 8.94216C14.6928 9.19221 14.3536 9.33268 14 9.33268H13.94C13.7255 9.33354 13.5159 9.3971 13.337 9.51555C13.1582 9.634 13.0179 9.80217 12.9334 9.99935Z" stroke="#344054" stroke-width="1.5" stroke-linecap="round" stroke-linejoin="round"/>
</g>
<defs>
<clipPath id="clip0_3403_6388">
<rect width="16" height="16" fill="white"/>
</clipPath>
</defs>
</svg>
